<?xml version="1.0" encoding="UTF-8" standalone="no"?>
<!DOCTYPE svg PUBLIC "-//W3C//DTD SVG 1.1//EN" "http://www.w3.org/Graphics/SVG/1.1/DTD/svg11.dtd">
<svg width="100%" height="100%" viewBox="0 0 684 334" version="1.1" xmlns="http://www.w3.org/2000/svg" xmlns:xlink="http://www.w3.org/1999/xlink" xml:space="preserve" xmlns:serif="http://www.serif.com/" style="fill-rule:evenodd;clip-rule:evenodd;stroke-linejoin:round;stroke-miterlimit:2;">
    <g transform="matrix(1,0,0,1,563.216,165.873)">
        <path d="M0,-12.869C1.184,-15.414 7.986,-14.869 12.123,-13.531C13.514,-13.082 18.647,-11.236 21.621,-6.098C22.555,-4.486 24.284,-1.5 23.163,0.144C21.527,2.545 14.605,0.932 9.966,-1.476C4.49,-4.319 -1.297,-10.081 0,-12.869" style="fill:white;fill-rule:nonzero;"/>
    </g>
    <g transform="matrix(1,0,0,1,268.865,216.648)">
        <path d="M0,-45.461C6.682,-51.299 27.93,-63.022 45.859,-73.348C61.483,-82.347 66.349,-87.38 75.606,-86.362C78.094,-86.089 82.209,-85.637 85.521,-82.644C95.106,-73.984 88.553,-52.557 81.803,-40.503C76.768,-31.512 66.454,-18.507 59.493,-20.672C53.477,-22.543 56.334,-33.762 48.958,-38.024C39.88,-43.27 22.264,-33.955 13.014,-21.292C7.7,-14.016 5.457,-10.687 4.958,-2.7C4.172,9.878 -9.533,18.859 -25.066,23.815C-81.803,41.919 -31.299,-18.113 0,-45.461" style="fill-rule:nonzero;"/>
    </g>
    <g transform="matrix(1,0,0,1,364.191,53.2068)">
        <path d="M0,109.084C-2.475,110.703 3.402,90.389 -4.958,72.521C-12.163,57.121 -24.244,54.739 -22.93,47.112C-21.342,37.901 -1.667,29.459 9.296,35.337C19.876,41.011 19.957,58.749 29.127,59.506C30.716,59.638 32.12,59.221 34.084,58.267C50.316,50.384 59.821,27.641 79.944,6.83C87.468,-0.951 89.859,-1.619 91.718,-1.226C100.462,0.62 105.08,27.522 99.155,49.591C97.902,54.259 90.232,82.826 65.69,91.112C63.421,91.878 46.407,97.623 34.704,89.253C26.039,83.055 26.325,73.438 21.69,73.14C12.495,72.549 16.113,98.549 0,109.084" style="fill-rule:nonzero;"/>
    </g>
    <g transform="matrix(1,0,0,1,452.922,2.94581)">
        <path d="M0,139.734C-4.383,135.147 20.681,116.469 22.93,82.72C23.945,67.478 20.472,46.686 9.916,43.058C4.364,41.15 -43.134,61.59 -70.455,72.854C-88.117,80.136 -103,84.3 -110.656,85.237C-125.703,87.08 -125.041,77.486 -108.451,73.424C-88.216,68.47 -26.289,46.513 17.972,22.607C22.982,19.901 32.617,14.548 46.479,11.452C49.521,10.773 59.839,8.623 73.747,8.973C88.58,9.347 87.988,11.388 99.155,12.072C140.94,14.629 138.294,-3.897 150.865,1.397C154.648,2.989 148.187,18.598 146.873,21.987C138.955,42.419 107.814,44.682 81.183,48.635C56.122,52.356 50.25,51.792 46.479,57.311C41.818,64.133 47.556,69.723 45.859,87.058C45.446,91.283 44.034,104.385 36.563,116.185C25.367,133.868 3.723,143.631 0,139.734" style="fill-rule:nonzero;"/>
    </g>
    <g transform="matrix(1,0,0,1,508.841,162.296)">
        <path d="M0,-98.736C4.168,-103.564 6.947,-101.383 27.743,-105.137C44.232,-108.114 51.374,-114.211 61.828,-111.334C64.932,-110.48 70.649,-108.907 72.363,-104.517C75.089,-97.538 66.504,-86.496 57.49,-80.348C39.71,-68.222 20.962,-75.613 14.109,-63.616C13.565,-62.662 11.451,-58.962 12.87,-56.179C14.662,-52.664 20.327,-54.07 28.983,-51.221C35.564,-49.056 43.743,-44.474 43.236,-41.306C42.728,-38.126 33.592,-37.132 32.081,-36.968C19.75,-35.627 14.429,-41.267 9.152,-38.827C2.005,-35.523 -1.935,-22.314 2.335,-17.137C8.066,-10.187 26.555,-22.543 31.462,-14.658C34.955,-9.044 30.237,5.613 23.405,10.131C19.349,12.813 16.559,10.766 6.673,10.131C-14.756,8.754 -20.39,15.475 -30.51,10.131C-31.025,9.859 -41.19,4.325 -41.665,-4.123C-42.048,-10.925 -35.875,-14.757 -27.412,-24.574C-25.359,-26.954 -15.088,-38.867 -10.06,-51.221C-1.247,-72.873 -9.356,-87.898 0,-98.736" style="fill-rule:nonzero;"/>
    </g>
    <g transform="matrix(1,0,0,1,543.401,44.8251)">
        <path d="M0,125.742C-5.469,122.405 1.263,109.821 10.535,89.179C23.257,60.855 29.618,46.694 30.366,45.178C50.849,3.709 63.713,-27.825 65.071,-37.864C65.225,-39.009 65.645,-42.512 68.169,-44.061C70.537,-45.515 73.589,-44.532 74.986,-44.061C80.701,-42.135 82.14,-38.135 88.62,-31.667C93.378,-26.917 97.777,-23.909 99.155,-22.991C106.938,-17.807 109.357,-18.715 114.028,-14.315C116.858,-11.649 118.394,-8.819 121.465,-3.16C125.067,3.479 124.531,4.405 128.902,13.573C132.626,21.385 134.488,25.29 135.719,27.207C138.241,31.135 140.622,33.964 140.057,37.742C139.649,40.461 137.914,42.346 137.578,42.7C135.499,44.888 132.908,45.4 131.38,45.798C123.96,47.732 124.273,51.506 114.648,55.714C110.811,57.391 107.749,58.73 103.493,58.812C102.281,58.836 98.035,58.815 89.24,54.474C78.698,49.272 78.629,46.258 71.887,44.559C69.505,43.958 62.434,42.176 57.014,45.798C50.751,49.985 50.392,58.919 50.197,63.77C49.437,82.716 76.266,111.034 86.141,127.601C91.529,136.64 91.609,142.529 91.099,148.672C90.857,151.587 90.308,157.268 86.141,162.305C85.631,162.922 78.564,171.257 71.887,169.122C67.71,167.786 65.847,163.042 65.071,161.066C62.471,154.447 65.306,150.944 63.831,142.474C63.056,138.027 61.618,135.225 60.113,131.939C49.836,109.509 45.479,84.287 41.521,84.841C41.134,84.895 39.963,85.306 38.423,96.615C35.496,118.103 40.879,127.597 34.704,128.841C27.476,130.296 5.542,129.123 0,125.742" style="fill-rule:nonzero;"/>
    </g>
    <g transform="matrix(1,0,0,1,85.4284,66.9214)">
        <path d="M0,248.66C0.65,239.887 6.813,233.612 11.775,230.068C114.424,156.756 142,107.616 149.352,88.772C160.886,59.215 167.125,53.229 163.606,47.871C158.188,39.622 137.219,44.398 125.183,47.251C96.768,53.987 83.364,64.175 60.113,75.758C26.556,92.477 0.317,105.549 -29.747,100.547C-35.775,99.544 -66.367,94.454 -80.564,69.561C-87.339,57.682 -85.906,41.191 -83.042,8.209C-82.603,3.154 -81.733,-4.992 -75.606,-11.002C-71.263,-15.262 -63.317,-19.395 -57.634,-16.58C-50.716,-13.154 -50.784,-1.235 -50.817,4.491C-50.893,17.775 -56.002,20.422 -57.014,31.758C-58.012,42.933 -54.632,58.103 -45.24,65.223C-38.629,70.235 -29.235,71.111 -4.958,64.603C33.443,54.31 45.211,42.664 87.38,28.04C111.028,19.839 122.661,18.184 130.141,17.505C149.726,15.726 162.189,14.595 176,19.984C180.84,21.872 186.128,24.672 193.972,24.322C199.595,24.071 201.233,22.438 213.183,19.364C222.403,16.992 227.013,15.807 230.536,16.265C238.483,17.3 248.189,23.054 250.986,32.378C253.724,41.504 248.531,49.68 244.169,56.547C242.226,59.606 236.078,68.606 220.62,77.617C203.663,87.503 199.622,83.342 187.775,90.632C177.672,96.848 59.672,234.039 47.099,248.66C42.853,253.597 35.222,262.804 22.93,265.392C19.843,266.042 10.289,268.055 4.338,262.294C-0.652,257.464 -0.105,250.076 0,248.66" style="fill-rule:nonzero;"/>
    </g>
    <g transform="matrix(1,0,0,1,265.416,107.424)">
        <path d="M0,23.347C-2.769,18.262 6.48,7.651 13.774,2.431C16.226,0.676 25.583,-5.571 37.751,-4.201C41.571,-3.771 48.642,-2.975 49.995,0.9C51.969,6.559 40.802,16.058 31.119,20.796C19.687,26.391 3.033,28.918 0,23.347" style="fill:white;fill-rule:nonzero;"/>
    </g>
    <g transform="matrix(0.44446,0.895799,0.895799,-0.44446,290.248,149.866)">
        <path d="M19.023,-10.217C16.091,-10.329 11.66,3.992 11.328,8.526C10.171,24.319 17.126,31.917 19.023,29.613C20.953,27.267 25.151,19.654 25.736,9.678C26.321,-0.297 22.235,-10.095 19.023,-10.217" style="fill:white;fill-rule:nonzero;"/>
    </g>
    <g transform="matrix(1,0,0,1,614.285,64.8688)">
        <path d="M0,-17.96C1.652,-21.512 11.145,-20.751 16.919,-18.884C18.86,-18.257 26.023,-15.681 30.174,-8.511C31.478,-6.26 33.89,-2.094 32.326,0.201C30.043,3.552 20.383,1.3 13.909,-2.06C6.266,-6.027 -1.81,-14.069 0,-17.96" style="fill:white;fill-rule:nonzero;"/>
    </g>
</svg>
