<?xml version="1.0" encoding="UTF-8" standalone="no"?>
<!DOCTYPE svg PUBLIC "-//W3C//DTD SVG 1.1//EN" "http://www.w3.org/Graphics/SVG/1.1/DTD/svg11.dtd">
<svg width="100%" height="100%" viewBox="0 0 3141 546" version="1.1" xmlns="http://www.w3.org/2000/svg" xmlns:xlink="http://www.w3.org/1999/xlink" xml:space="preserve" xmlns:serif="http://www.serif.com/" style="fill-rule:evenodd;clip-rule:evenodd;stroke-miterlimit:10;">
    <g transform="matrix(0.938638,0,0,0.376824,-104.534,-142.983)">
        <g id="Ebene-1" serif:id="Ebene 1">
            <rect x="111.368" y="379.442" width="3346.26" height="1447.34" style="fill:none;"/>
            <clipPath id="_clip1">
                <rect x="111.368" y="379.442" width="3346.26" height="1447.34"/>
            </clipPath>
            <g clip-path="url(#_clip1)">
                <g transform="matrix(0.699304,0,0,1.74191,-811.371,-2015.25)">
                    <path d="M1707.57,2205.15C1707.23,2204.87 1724.41,2204.49 1740.16,2201.98C1761.22,2198.63 1783.78,2193.4 1797.49,2184.9C1821.46,2170.04 1804.21,2139.81 1823.28,2135.81C1842.36,2131.81 1850.53,2106.91 1866.48,2079.51C1882.42,2052.1 1847.14,2015.33 1870.27,2014.06C1893.39,2012.79 1909.86,2008.16 1926.79,1994.64C1943.72,1981.11 2003.42,1859.38 2015.51,1821.76C2027.6,1784.14 1998.13,1729.94 2007.09,1717.68C2016.05,1705.43 2034.21,1665.67 2036.34,1639.45C2038.46,1613.24 2033.98,1578.66 2037.99,1549.94C2042,1521.22 2069.53,1501.88 2062.46,1452.67C2059.61,1432.79 2063.32,1403.3 2022.64,1382.58C1981.97,1361.85 1947.11,1388.84 1947.11,1388.84L1883.19,1470.49C1883.19,1470.49 1796,1405.39 1707.57,1405.39C1619.14,1405.39 1763.99,1405.39 1675.56,1405.39C1670.36,1405.39 1665.16,1405.62 1659.98,1406.04C1577.17,1412.83 1499.94,1470.49 1499.94,1470.49L1436.02,1388.84C1436.02,1388.84 1401.16,1361.85 1360.49,1382.58C1319.81,1403.3 1323.52,1432.79 1320.67,1452.67C1313.6,1501.88 1341.13,1521.22 1345.14,1549.94C1349.15,1578.66 1344.66,1613.24 1346.79,1639.45C1348.92,1665.67 1367.08,1705.43 1376.04,1717.68C1384.99,1729.94 1355.53,1784.14 1367.62,1821.76C1379.71,1859.38 1439.41,1981.11 1456.34,1994.64C1473.27,2008.16 1489.74,2012.79 1512.86,2014.06C1535.99,2015.33 1500.71,2052.1 1516.65,2079.51C1532.59,2106.91 1540.77,2131.81 1559.85,2135.81C1578.92,2139.81 1561.67,2170.04 1585.64,2184.9C1599.35,2193.4 1621.91,2198.63 1642.97,2201.98C1658.71,2204.49 1675.9,2204.87 1675.56,2205.15C1674.77,2205.8 1708.36,2205.8 1707.57,2205.15Z" style="fill:rgb(35,31,32);"/>
                </g>
                <g transform="matrix(5.05401,0,0,12.5891,-577.531,-1701.04)">
                    <path d="M340.161,210.023C340.161,215.798 338.825,221.035 336.153,225.733C333.481,230.431 329.537,234.159 324.322,236.917C319.107,239.676 312.792,241.055 305.379,241.055L294,241.055L294,270.148L265.295,270.148L265.295,178.602L305.379,178.602C316.585,178.602 325.184,181.447 331.175,187.136C337.166,192.825 340.161,200.454 340.161,210.023ZM302.146,218.427C308.094,218.427 311.068,215.626 311.068,210.023C311.068,204.419 308.094,201.618 302.146,201.618L294,201.618L294,218.427L302.146,218.427Z" style="fill:rgb(35,31,32);fill-rule:nonzero;"/>
                    <path d="M401.451,256.313L370.935,256.313L366.41,270.148L336.282,270.148L369.771,178.602L402.873,178.602L436.233,270.148L405.976,270.148L401.451,256.313ZM394.468,234.719L386.193,209.247L377.918,234.719L394.468,234.719Z" style="fill:rgb(35,31,32);fill-rule:nonzero;"/>
                    <path d="M536.959,270.148L508.254,270.148L477.868,224.117L477.868,270.148L449.163,270.148L449.163,178.602L477.868,178.602L508.254,225.41L508.254,178.602L536.959,178.602L536.959,270.148Z" style="fill:rgb(35,31,32);fill-rule:nonzero;"/>
                    <path d="M628.247,178.602L628.247,201.359L603.938,201.359L603.938,270.148L575.233,270.148L575.233,201.359L551.183,201.359L551.183,178.602L628.247,178.602Z" style="fill:rgb(35,31,32);fill-rule:nonzero;"/>
                    <path d="M671.175,201.489L671.175,212.738L699.622,212.738L699.622,234.331L671.175,234.331L671.175,247.262L703.501,247.262L703.501,270.148L642.47,270.148L642.47,178.602L703.501,178.602L703.501,201.489L671.175,201.489Z" style="fill:rgb(35,31,32);fill-rule:nonzero;"/>
                    <path d="M766.859,270.148L749.662,237.305L749.532,237.305L749.532,270.148L720.827,270.148L720.827,178.602L763.497,178.602C770.91,178.602 777.246,179.917 782.504,182.546C787.763,185.175 791.706,188.752 794.336,193.278C796.965,197.803 798.279,202.911 798.279,208.6C798.279,214.721 796.577,220.151 793.172,224.892C789.767,229.633 784.875,233.038 778.496,235.107L798.409,270.148L766.859,270.148ZM749.532,218.169L760.911,218.169C763.669,218.169 765.738,217.544 767.117,216.294C768.497,215.044 769.186,213.083 769.186,210.41C769.186,207.997 768.475,206.1 767.053,204.721C765.63,203.342 763.583,202.652 760.911,202.652L749.532,202.652L749.532,218.169Z" style="fill:rgb(35,31,32);fill-rule:nonzero;"/>
                </g>
                <g transform="matrix(2.91377,0,0,7.25796,-828.279,-1971.82)">
                    <g transform="matrix(1,0,0,1,298.178,204.099)">
                        <g transform="matrix(1,0,0,1,63.7348,234.543)">
                            <path d="M0,-21.384C0,-21.384 21.384,-29.938 31.364,-5.702C31.364,-5.702 8.554,8.554 0,-21.384Z" style="fill:white;fill-rule:nonzero;stroke:rgb(35,31,32);stroke-width:1.52px;"/>
                        </g>
                        <g transform="matrix(1,0,0,1,165.571,234.543)">
                            <path d="M0,-21.384C0,-21.384 -21.384,-29.938 -31.364,-5.702C-31.364,-5.702 -8.554,8.554 0,-21.384Z" style="fill:white;fill-rule:nonzero;stroke:rgb(35,31,32);stroke-width:1.52px;"/>
                        </g>
                    </g>
                    <g transform="matrix(1,0,0,1,359.808,438.642)">
                        <clipPath id="_clip2">
                            <path d="M9.98,-22.81C7.814,-19.06 10.15,-13.195 13.9,-11.03C15.032,-10.376 16.259,-10.072 17.48,-10.021C17.25,-10.432 17.107,-10.9 17.107,-11.405C17.107,-12.979 18.384,-14.257 19.959,-14.257C21.408,-14.257 22.592,-13.17 22.773,-11.77C23.487,-12.354 24.122,-13.054 24.611,-13.9C26.775,-17.65 25.491,-22.446 21.741,-24.611C20.191,-25.506 18.282,-25.994 16.424,-25.994C13.786,-25.994 11.249,-25.01 9.98,-22.81Z" clip-rule="nonzero"/>
                        </clipPath>
                        <g clip-path="url(#_clip2)">
                            <path d="M0,-21.384C0,-21.384 21.384,-29.938 31.364,-5.702C31.364,-5.702 8.554,8.554 0,-21.384" style="fill:rgb(35,31,32);fill-rule:nonzero;"/>
                        </g>
                    </g>
                    <g transform="matrix(1,0,0,1,461.644,438.642)">
                        <clipPath id="_clip3">
                            <path d="M-21.741,-24.611C-25.491,-22.446 -26.776,-17.65 -24.61,-13.9C-24.123,-13.054 -23.486,-12.354 -22.774,-11.77C-22.592,-13.17 -21.408,-14.257 -19.959,-14.257C-18.384,-14.257 -17.108,-12.979 -17.108,-11.405C-17.108,-10.9 -17.25,-10.432 -17.481,-10.021C-16.259,-10.072 -15.032,-10.376 -13.9,-11.03C-10.15,-13.195 -7.815,-19.06 -9.979,-22.81C-11.25,-25.01 -13.787,-25.994 -16.425,-25.994C-18.283,-25.994 -20.191,-25.506 -21.741,-24.611Z" clip-rule="nonzero"/>
                        </clipPath>
                        <g clip-path="url(#_clip3)">
                            <path d="M0,-21.384C0,-21.384 -21.384,-29.938 -31.364,-5.702C-31.364,-5.702 -8.554,8.554 0,-21.384" style="fill:rgb(35,31,32);fill-rule:nonzero;"/>
                        </g>
                    </g>
                </g>
            </g>
        </g>
    </g>
</svg>
